<?xml version="1.0" encoding="UTF-8" standalone="no"?><!DOCTYPE svg PUBLIC "-//W3C//DTD SVG 1.1//EN" "http://www.w3.org/Graphics/SVG/1.1/DTD/svg11.dtd"><!-- Generated by graphviz version 2.40.1 (20161225.0304)
 --><!-- Title: G Pages: 1 --><svg xmlns="http://www.w3.org/2000/svg" xmlns:xlink="http://www.w3.org/1999/xlink" width="729pt" height="647pt" viewBox="0.00 0.00 729.00 646.80">
<g id="graph0" class="graph" transform="scale(1 1) rotate(0) translate(4 642.8)">
<title>G</title>
<polygon fill="#ffffff" stroke="transparent" points="-4,4 -4,-642.8 725,-642.8 725,4 -4,4"/>
<g id="clust1" class="cluster">
<title>cluster_hypo</title>
<polygon fill="#ffa500" stroke="#ffa500" points="8,-80 8,-397.2 200,-397.2 200,-80 8,-80"/>
<text text-anchor="middle" x="104" y="-380.6" font-family="Lato,Helvetica,Arial,sans-serif" font-size="14.00" fill="#000000">Hypotheses</text>
</g>
<g id="clust2" class="cluster">
<title>cluster_0</title>
<polygon fill="#d3d3d3" stroke="#d3d3d3" points="298,-554 298,-630.8 582,-630.8 582,-554 298,-554"/>
<text text-anchor="middle" x="440" y="-614.2" font-family="Lato,Helvetica,Arial,sans-serif" font-size="14.00" fill="#000000">NCBI SRA</text>
</g>
<g id="clust3" class="cluster">
<title>cluster_1</title>
<polygon fill="#d3d3d3" stroke="#d3d3d3" points="248,-469.2 248,-546 366,-546 366,-469.2 248,-469.2"/>
<text text-anchor="middle" x="307" y="-529.4" font-family="Lato,Helvetica,Arial,sans-serif" font-size="14.00" fill="#000000">Solgenomics</text>
</g>
<g id="clust4" class="cluster">
<title>cluster_2</title>
<polygon fill="#add8e6" stroke="#add8e6" points="262,-8 262,-394.4 332,-394.4 332,-8 262,-8"/>
<text text-anchor="middle" x="297" y="-377.8" font-family="Lato,Helvetica,Arial,sans-serif" font-size="14.00" fill="#000000">Figures</text>
</g>
<g id="clust5" class="cluster">
<title>cluster_3</title>
<polygon fill="#d3d3d3" stroke="#d3d3d3" points="340,-160.4 340,-237.2 472,-237.2 472,-160.4 340,-160.4"/>
<text text-anchor="middle" x="406" y="-220.6" font-family="Lato,Helvetica,Arial,sans-serif" font-size="14.00" fill="#000000">Literature</text>
</g>
<g id="clust6" class="cluster">
<title>cluster_4</title>
<polygon fill="#d3d3d3" stroke="#d3d3d3" points="610,-160.4 610,-237.2 713,-237.2 713,-160.4 610,-160.4"/>
<text text-anchor="middle" x="661.5" y="-220.6" font-family="Lato,Helvetica,Arial,sans-serif" font-size="14.00" fill="#000000">OMA Database</text>
</g>
<!-- h1 -->
<g id="node1" class="node">
<title>h1</title>
<polygon fill="#ffffff" stroke="#ffffff" points="192.3213,-364.2019 15.6787,-364.2019 15.6787,-322.9981 192.3213,-322.9981 192.3213,-364.2019"/>
<text text-anchor="middle" x="104" y="-347.8" font-family="Lato,Helvetica,Arial,sans-serif" font-size="14.00" fill="#000000">HS Response dominated by </text>
<text text-anchor="middle" x="104" y="-331" font-family="Lato,Helvetica,Arial,sans-serif" font-size="14.00" fill="#000000"> HSPs + Fat &amp; Redox Genes</text>
</g>
<!-- h2 -->
<g id="node2" class="node">
<title>h2</title>
<polygon fill="#ffffff" stroke="#ffffff" points="176.252,-286.6019 15.748,-286.6019 15.748,-245.3981 176.252,-245.3981 176.252,-286.6019"/>
<text text-anchor="middle" x="96" y="-270.2" font-family="Lato,Helvetica,Arial,sans-serif" font-size="14.00" fill="#000000">HS Response ≠ </text>
<text text-anchor="middle" x="96" y="-253.4" font-family="Lato,Helvetica,Arial,sans-serif" font-size="14.00" fill="#000000">Drought or Salt Response</text>
</g>
<!-- h1&#45;&gt;h2 -->
<g id="edge1" class="edge">
<title>h1-&gt;h2</title>
<path fill="none" stroke="#000000" stroke-width="0" d="M101.8561,-322.8046C100.7173,-311.7577 99.3205,-298.2089 98.1767,-287.1144"/>
<polygon fill="#000000" stroke="#000000" stroke-width="0" points="98.1498,-286.8528 98.1498,-286.8528 98.1498,-286.8528 98.1498,-286.8528"/>
</g>
<!-- f3 -->
<g id="node11" class="node">
<title>f3</title>
<polygon fill="#ffffff" stroke="#ffffff" points="324,-204.4 270,-204.4 270,-200.4 266,-200.4 266,-196.4 270,-196.4 270,-176.4 266,-176.4 266,-172.4 270,-172.4 270,-168.4 324,-168.4 324,-204.4"/>
<polyline fill="none" stroke="#ffffff" points="270,-200.4 274,-200.4 274,-196.4 270,-196.4 "/>
<polyline fill="none" stroke="#ffffff" points="270,-176.4 274,-176.4 274,-172.4 270,-172.4 "/>
<text text-anchor="middle" x="297" y="-182.2" font-family="Lato,Helvetica,Arial,sans-serif" font-size="14.00" fill="#000000">3</text>
</g>
<!-- h1&#45;&gt;f3 -->
<g id="edge24" class="edge">
<title>h1-&gt;f3</title>
<path fill="none" stroke="#000000" d="M157.4032,-322.9255C177.5793,-313.6456 199.993,-301.4566 218,-286.8 243.7018,-265.8803 266.313,-235.1792 280.686,-213.2408"/>
<polygon fill="#000000" stroke="#000000" points="283.6971,-215.0288 286.1442,-204.7205 277.8029,-211.2529 283.6971,-215.0288"/>
</g>
<!-- f4 -->
<g id="node12" class="node">
<title>f4</title>
<polygon fill="#ffffff" stroke="#ffffff" points="324,-126.8 270,-126.8 270,-122.8 266,-122.8 266,-118.8 270,-118.8 270,-98.8 266,-98.8 266,-94.8 270,-94.8 270,-90.8 324,-90.8 324,-126.8"/>
<polyline fill="none" stroke="#ffffff" points="270,-122.8 274,-122.8 274,-118.8 270,-118.8 "/>
<polyline fill="none" stroke="#ffffff" points="270,-98.8 274,-98.8 274,-94.8 270,-94.8 "/>
<text text-anchor="middle" x="297" y="-104.6" font-family="Lato,Helvetica,Arial,sans-serif" font-size="14.00" fill="#000000">4</text>
</g>
<!-- h1&#45;&gt;f4 -->
<g id="edge25" class="edge">
<title>h1-&gt;f4</title>
<path fill="none" stroke="#000000" d="M140.0097,-322.9974C155.0458,-313.2764 172.0006,-300.7456 185,-286.8 229.696,-238.8506 225.3372,-215.4004 261,-160.4 266.3243,-152.1887 272.3312,-143.4048 277.8909,-135.4548"/>
<polygon fill="#000000" stroke="#000000" points="280.7934,-137.412 283.6946,-127.2221 275.0721,-133.3787 280.7934,-137.412"/>
</g>
<!-- h3 -->
<g id="node3" class="node">
<title>h3</title>
<polygon fill="#ffffff" stroke="#ffffff" points="169.0212,-207.0019 18.9788,-207.0019 18.9788,-165.7981 169.0212,-165.7981 169.0212,-207.0019"/>
<text text-anchor="middle" x="94" y="-190.6" font-family="Lato,Helvetica,Arial,sans-serif" font-size="14.00" fill="#000000">HS Response Genes lie </text>
<text text-anchor="middle" x="94" y="-173.8" font-family="Lato,Helvetica,Arial,sans-serif" font-size="14.00" fill="#000000"> in Known QTLs</text>
</g>
<!-- h2&#45;&gt;h3 -->
<g id="edge2" class="edge">
<title>h2-&gt;h3</title>
<path fill="none" stroke="#000000" stroke-width="0" d="M95.4745,-245.086C95.1829,-233.4775 94.8211,-219.0785 94.5289,-207.4485"/>
<polygon fill="#000000" stroke="#000000" stroke-width="0" points="94.522,-207.1743 94.522,-207.1743 94.522,-207.1743 94.522,-207.1743"/>
</g>
<!-- h2&#45;&gt;f3 -->
<g id="edge26" class="edge">
<title>h2-&gt;f3</title>
<path fill="none" stroke="#000000" d="M176.3261,-246.8842C185.7647,-243.9628 195.1707,-240.7294 204,-237.2 223.4589,-229.4216 244.0134,-218.5079 260.836,-208.789"/>
<polygon fill="#000000" stroke="#000000" points="262.9194,-211.6243 269.7674,-203.5399 259.3726,-205.5893 262.9194,-211.6243"/>
</g>
<!-- h2&#45;&gt;f4 -->
<g id="edge27" class="edge">
<title>h2-&gt;f4</title>
<path fill="none" stroke="#000000" d="M166.3868,-245.3401C170.504,-242.9133 174.4197,-240.21 178,-237.2 207.9434,-212.0264 194.5538,-189.2257 221,-160.4 232.4091,-147.9643 247.372,-136.9928 261.0012,-128.3997"/>
<polygon fill="#000000" stroke="#000000" points="262.986,-131.2892 269.7142,-123.1049 259.3507,-125.3071 262.986,-131.2892"/>
</g>
<!-- h4 -->
<g id="node4" class="node">
<title>h4</title>
<polygon fill="#ffffff" stroke="#ffffff" points="172.6965,-129.4019 17.3035,-129.4019 17.3035,-88.1981 172.6965,-88.1981 172.6965,-129.4019"/>
<text text-anchor="middle" x="95" y="-113" font-family="Lato,Helvetica,Arial,sans-serif" font-size="14.00" fill="#000000">HS Response is Ancient </text>
<text text-anchor="middle" x="95" y="-96.2" font-family="Lato,Helvetica,Arial,sans-serif" font-size="14.00" fill="#000000"> and Conserved</text>
</g>
<!-- h3&#45;&gt;h4 -->
<g id="edge3" class="edge">
<title>h3-&gt;h4</title>
<path fill="none" stroke="#000000" stroke-width="0" d="M94.268,-165.6046C94.4103,-154.5577 94.5849,-141.0089 94.7279,-129.9144"/>
<polygon fill="#000000" stroke="#000000" stroke-width="0" points="94.7313,-129.6528 94.7313,-129.6528 94.7313,-129.6528 94.7313,-129.6528"/>
</g>
<!-- h3&#45;&gt;f4 -->
<g id="edge28" class="edge">
<title>h3-&gt;f4</title>
<path fill="none" stroke="#000000" d="M148.1336,-165.7066C183.5318,-152.175 228.838,-134.856 260.1225,-122.897"/>
<polygon fill="#000000" stroke="#000000" points="261.6657,-126.0542 269.7567,-119.2142 259.1662,-119.5156 261.6657,-126.0542"/>
</g>
<!-- f5 -->
<g id="node13" class="node">
<title>f5</title>
<polygon fill="#ffffff" stroke="#ffffff" points="324,-52 270,-52 270,-48 266,-48 266,-44 270,-44 270,-24 266,-24 266,-20 270,-20 270,-16 324,-16 324,-52"/>
<polyline fill="none" stroke="#ffffff" points="270,-48 274,-48 274,-44 270,-44 "/>
<polyline fill="none" stroke="#ffffff" points="270,-24 274,-24 274,-20 270,-20 "/>
<text text-anchor="middle" x="297" y="-29.8" font-family="Lato,Helvetica,Arial,sans-serif" font-size="14.00" fill="#000000">5</text>
</g>
<!-- h4&#45;&gt;f5 -->
<g id="edge29" class="edge">
<title>h4-&gt;f5</title>
<path fill="none" stroke="#000000" d="M150.7321,-88.1626C185.7165,-75.2079 229.8372,-58.8702 260.4254,-47.5435"/>
<polygon fill="#000000" stroke="#000000" points="261.6901,-50.8075 269.8524,-44.0527 259.2593,-44.2431 261.6901,-50.8075"/>
</g>
<!-- d1 -->
<g id="node5" class="node">
<title>d1</title>
<path fill="#ffffff" stroke="#ffffff" d="M574.3537,-594.7273C574.3537,-596.5331 558.0594,-598 538,-598 517.9406,-598 501.6463,-596.5331 501.6463,-594.7273 501.6463,-594.7273 501.6463,-565.2727 501.6463,-565.2727 501.6463,-563.4669 517.9406,-562 538,-562 558.0594,-562 574.3537,-563.4669 574.3537,-565.2727 574.3537,-565.2727 574.3537,-594.7273 574.3537,-594.7273"/>
<path fill="none" stroke="#ffffff" d="M574.3537,-594.7273C574.3537,-592.9214 558.0594,-591.4545 538,-591.4545 517.9406,-591.4545 501.6463,-592.9214 501.6463,-594.7273"/>
<text text-anchor="middle" x="538" y="-575.8" font-family="Lato,Helvetica,Arial,sans-serif" font-size="14.00" fill="#000000">Heat Data</text>
</g>
<!-- p1 -->
<g id="node16" class="node">
<title>p1</title>
<text text-anchor="middle" x="438" y="-491" font-family="Lato,Helvetica,Arial,sans-serif" font-size="14.00" fill="#000000">Annotate and Filter</text>
</g>
<!-- d1&#45;&gt;p1 -->
<g id="edge8" class="edge">
<title>d1-&gt;p1</title>
<path fill="none" stroke="#000000" d="M516.7926,-562.0161C502.4389,-549.8442 483.283,-533.6 467.4533,-520.1764"/>
<polygon fill="#000000" stroke="#000000" points="469.4122,-517.2486 459.5216,-513.4503 464.8849,-522.5874 469.4122,-517.2486"/>
</g>
<!-- d2 -->
<g id="node6" class="node">
<title>d2</title>
<path fill="#ffffff" stroke="#ffffff" d="M484.0851,-594.7273C484.0851,-596.5331 463.429,-598 438,-598 412.571,-598 391.9149,-596.5331 391.9149,-594.7273 391.9149,-594.7273 391.9149,-565.2727 391.9149,-565.2727 391.9149,-563.4669 412.571,-562 438,-562 463.429,-562 484.0851,-563.4669 484.0851,-565.2727 484.0851,-565.2727 484.0851,-594.7273 484.0851,-594.7273"/>
<path fill="none" stroke="#ffffff" d="M484.0851,-594.7273C484.0851,-592.9214 463.429,-591.4545 438,-591.4545 412.571,-591.4545 391.9149,-592.9214 391.9149,-594.7273"/>
<text text-anchor="middle" x="438" y="-575.8" font-family="Lato,Helvetica,Arial,sans-serif" font-size="14.00" fill="#000000">Drought Data</text>
</g>
<!-- d2&#45;&gt;p1 -->
<g id="edge9" class="edge">
<title>d2-&gt;p1</title>
<path fill="none" stroke="#000000" d="M438,-561.5997C438,-550.4112 438,-535.8983 438,-523.2954"/>
<polygon fill="#000000" stroke="#000000" points="441.5001,-523.2731 438,-513.2731 434.5001,-523.2731 441.5001,-523.2731"/>
</g>
<!-- d3 -->
<g id="node7" class="node">
<title>d3</title>
<path fill="#ffffff" stroke="#ffffff" d="M373.7054,-594.7273C373.7054,-596.5331 358.5981,-598 340,-598 321.4019,-598 306.2946,-596.5331 306.2946,-594.7273 306.2946,-594.7273 306.2946,-565.2727 306.2946,-565.2727 306.2946,-563.4669 321.4019,-562 340,-562 358.5981,-562 373.7054,-563.4669 373.7054,-565.2727 373.7054,-565.2727 373.7054,-594.7273 373.7054,-594.7273"/>
<path fill="none" stroke="#ffffff" d="M373.7054,-594.7273C373.7054,-592.9214 358.5981,-591.4545 340,-591.4545 321.4019,-591.4545 306.2946,-592.9214 306.2946,-594.7273"/>
<text text-anchor="middle" x="340" y="-575.8" font-family="Lato,Helvetica,Arial,sans-serif" font-size="14.00" fill="#000000">Salt Data</text>
</g>
<!-- d3&#45;&gt;p1 -->
<g id="edge10" class="edge">
<title>d3-&gt;p1</title>
<path fill="none" stroke="#000000" d="M360.7833,-562.0161C374.8499,-549.8442 393.6227,-533.6 409.1358,-520.1764"/>
<polygon fill="#000000" stroke="#000000" points="411.637,-522.6405 416.9088,-513.4503 407.0566,-517.3471 411.637,-522.6405"/>
</g>
<!-- d4 -->
<g id="node8" class="node">
<title>d4</title>
<path fill="#ffffff" stroke="#ffffff" d="M357.6523,-509.9273C357.6523,-511.7331 334.9491,-513.2 307,-513.2 279.0509,-513.2 256.3477,-511.7331 256.3477,-509.9273 256.3477,-509.9273 256.3477,-480.4727 256.3477,-480.4727 256.3477,-478.6669 279.0509,-477.2 307,-477.2 334.9491,-477.2 357.6523,-478.6669 357.6523,-480.4727 357.6523,-480.4727 357.6523,-509.9273 357.6523,-509.9273"/>
<path fill="none" stroke="#ffffff" d="M357.6523,-509.9273C357.6523,-508.1214 334.9491,-506.6545 307,-506.6545 279.0509,-506.6545 256.3477,-508.1214 256.3477,-509.9273"/>
<text text-anchor="middle" x="307" y="-491" font-family="Lato,Helvetica,Arial,sans-serif" font-size="14.00" fill="#000000">ITAG 4.1 CDS</text>
</g>
<!-- p2 -->
<g id="node17" class="node">
<title>p2</title>
<text text-anchor="middle" x="373" y="-419" font-family="Lato,Helvetica,Arial,sans-serif" font-size="14.00" fill="#000000">Quantify Transcript Abundance</text>
</g>
<!-- d4&#45;&gt;p2 -->
<g id="edge11" class="edge">
<title>d4-&gt;p2</title>
<path fill="none" stroke="#000000" d="M323.6546,-477.0314C331.4114,-468.5694 340.7802,-458.3489 349.261,-449.0971"/>
<polygon fill="#000000" stroke="#000000" points="351.9439,-451.3499 356.1212,-441.6133 346.7838,-446.6198 351.9439,-451.3499"/>
</g>
<!-- f1 -->
<g id="node9" class="node">
<title>f1</title>
<polygon fill="#ffffff" stroke="#ffffff" points="324,-361.6 270,-361.6 270,-357.6 266,-357.6 266,-353.6 270,-353.6 270,-333.6 266,-333.6 266,-329.6 270,-329.6 270,-325.6 324,-325.6 324,-361.6"/>
<polyline fill="none" stroke="#ffffff" points="270,-357.6 274,-357.6 274,-353.6 270,-353.6 "/>
<polyline fill="none" stroke="#ffffff" points="270,-333.6 274,-333.6 274,-329.6 270,-329.6 "/>
<text text-anchor="middle" x="297" y="-339.4" font-family="Lato,Helvetica,Arial,sans-serif" font-size="14.00" fill="#000000">2A</text>
</g>
<!-- f2 -->
<g id="node10" class="node">
<title>f2</title>
<polygon fill="#ffffff" stroke="#ffffff" points="324,-284 270,-284 270,-280 266,-280 266,-276 270,-276 270,-256 266,-256 266,-252 270,-252 270,-248 324,-248 324,-284"/>
<polyline fill="none" stroke="#ffffff" points="270,-280 274,-280 274,-276 270,-276 "/>
<polyline fill="none" stroke="#ffffff" points="270,-256 274,-256 274,-252 270,-252 "/>
<text text-anchor="middle" x="297" y="-261.8" font-family="Lato,Helvetica,Arial,sans-serif" font-size="14.00" fill="#000000">2B</text>
</g>
<!-- f1&#45;&gt;f2 -->
<g id="edge4" class="edge">
<title>f1-&gt;f2</title>
<path fill="none" stroke="#000000" stroke-width="0" d="M297,-325.2099C297,-312.9365 297,-296.854 297,-284.5481"/>
<polygon fill="#000000" stroke="#000000" stroke-width="0" points="297,-284.2581 297,-284.2581 297,-284.2581 297,-284.2581"/>
</g>
<!-- f2&#45;&gt;f3 -->
<g id="edge5" class="edge">
<title>f2-&gt;f3</title>
<path fill="none" stroke="#000000" stroke-width="0" d="M297,-247.9375C297,-235.1033 297,-217.9189 297,-204.9716"/>
<polygon fill="#000000" stroke="#000000" stroke-width="0" points="297,-204.6665 297,-204.6665 297,-204.6665 297,-204.6665"/>
</g>
<!-- f3&#45;&gt;f4 -->
<g id="edge6" class="edge">
<title>f3-&gt;f4</title>
<path fill="none" stroke="#000000" stroke-width="0" d="M297,-168.0099C297,-155.7365 297,-139.654 297,-127.3481"/>
<polygon fill="#000000" stroke="#000000" stroke-width="0" points="297,-127.0581 297,-127.0581 297,-127.0581 297,-127.0581"/>
</g>
<!-- f4&#45;&gt;f5 -->
<g id="edge7" class="edge">
<title>f4-&gt;f5</title>
<path fill="none" stroke="#000000" stroke-width="0" d="M297,-90.693C297,-79.1103 297,-64.1278 297,-52.4742"/>
<polygon fill="#000000" stroke="#000000" stroke-width="0" points="297,-52.1995 297,-52.1995 297,-52.1995 297,-52.1995"/>
</g>
<!-- d5 -->
<g id="node14" class="node">
<title>d5</title>
<path fill="#ffffff" stroke="#ffffff" d="M463.5214,-201.1273C463.5214,-202.9331 437.7394,-204.4 406,-204.4 374.2606,-204.4 348.4786,-202.9331 348.4786,-201.1273 348.4786,-201.1273 348.4786,-171.6727 348.4786,-171.6727 348.4786,-169.8669 374.2606,-168.4 406,-168.4 437.7394,-168.4 463.5214,-169.8669 463.5214,-171.6727 463.5214,-171.6727 463.5214,-201.1273 463.5214,-201.1273"/>
<path fill="none" stroke="#ffffff" d="M463.5214,-201.1273C463.5214,-199.3214 437.7394,-197.8545 406,-197.8545 374.2606,-197.8545 348.4786,-199.3214 348.4786,-201.1273"/>
<text text-anchor="middle" x="406" y="-182.2" font-family="Lato,Helvetica,Arial,sans-serif" font-size="14.00" fill="#000000">Heat Stress QTLs</text>
</g>
<!-- d5&#45;&gt;f4 -->
<g id="edge20" class="edge">
<title>d5-&gt;f4</title>
<path fill="none" stroke="#000000" d="M380.4443,-168.2062C365.6847,-157.6985 346.9352,-144.3502 330.9494,-132.9694"/>
<polygon fill="#000000" stroke="#000000" points="332.5719,-129.8282 322.3955,-126.8798 328.5121,-135.5307 332.5719,-129.8282"/>
</g>
<!-- d6 -->
<g id="node15" class="node">
<title>d6</title>
<path fill="#ffffff" stroke="#ffffff" d="M690.993,-201.1273C690.993,-202.9331 674.8604,-204.4 655,-204.4 635.1396,-204.4 619.007,-202.9331 619.007,-201.1273 619.007,-201.1273 619.007,-171.6727 619.007,-171.6727 619.007,-169.8669 635.1396,-168.4 655,-168.4 674.8604,-168.4 690.993,-169.8669 690.993,-171.6727 690.993,-171.6727 690.993,-201.1273 690.993,-201.1273"/>
<path fill="none" stroke="#ffffff" d="M690.993,-201.1273C690.993,-199.3214 674.8604,-197.8545 655,-197.8545 635.1396,-197.8545 619.007,-199.3214 619.007,-201.1273"/>
<text text-anchor="middle" x="655" y="-182.2" font-family="Lato,Helvetica,Arial,sans-serif" font-size="14.00" fill="#000000">Orthologs</text>
</g>
<!-- p6 -->
<g id="node21" class="node">
<title>p6</title>
<text text-anchor="middle" x="541" y="-104.6" font-family="Lato,Helvetica,Arial,sans-serif" font-size="14.00" fill="#000000">Find Oldest Ortholog</text>
</g>
<!-- d6&#45;&gt;p6 -->
<g id="edge23" class="edge">
<title>d6-&gt;p6</title>
<path fill="none" stroke="#000000" d="M629.1316,-168.7914C613.468,-158.1291 593.2799,-144.387 576.1784,-132.746"/>
<polygon fill="#000000" stroke="#000000" points="577.7932,-129.6113 567.5571,-126.8775 573.8542,-135.3979 577.7932,-129.6113"/>
</g>
<!-- p1&#45;&gt;p2 -->
<g id="edge12" class="edge">
<title>p1-&gt;p2</title>
<path fill="none" stroke="#000000" d="M421.5978,-477.0314C413.9585,-468.5694 404.7317,-458.3489 396.3793,-449.0971"/>
<polygon fill="#000000" stroke="#000000" points="398.9221,-446.6906 389.6231,-441.6133 393.7262,-451.3813 398.9221,-446.6906"/>
</g>
<!-- p2&#45;&gt;f1 -->
<g id="edge13" class="edge">
<title>p2-&gt;f1</title>
<path fill="none" stroke="#000000" d="M347.8743,-405.1568C344.7831,-402.6016 341.7484,-399.9161 339,-397.2 330.7162,-389.0134 322.5881,-379.1899 315.7228,-370.2017"/>
<polygon fill="#000000" stroke="#000000" points="318.3401,-367.8559 309.5636,-361.9209 312.7233,-372.0336 318.3401,-367.8559"/>
</g>
<!-- p3 -->
<g id="node18" class="node">
<title>p3</title>
<text text-anchor="middle" x="450" y="-339.4" font-family="Lato,Helvetica,Arial,sans-serif" font-size="14.00" fill="#000000">Calculate Differential Expression</text>
</g>
<!-- p2&#45;&gt;p3 -->
<g id="edge14" class="edge">
<title>p2-&gt;p3</title>
<path fill="none" stroke="#000000" d="M390.4725,-405.1375C400.7369,-394.5266 413.8777,-380.942 425.2005,-369.2369"/>
<polygon fill="#000000" stroke="#000000" points="427.893,-371.4875 432.3301,-361.8665 422.8618,-366.6206 427.893,-371.4875"/>
</g>
<!-- p3&#45;&gt;f2 -->
<g id="edge15" class="edge">
<title>p3-&gt;f2</title>
<path fill="none" stroke="#000000" d="M410.9145,-325.4886C388.0077,-314.6603 358.6288,-300.4023 333,-286.8 332.9083,-286.7514 332.8166,-286.7026 332.7247,-286.6537"/>
<polygon fill="#000000" stroke="#000000" points="334.4624,-283.6149 324.0099,-281.8842 331.1018,-289.7555 334.4624,-283.6149"/>
</g>
<!-- p4 -->
<g id="node19" class="node">
<title>p4</title>
<text text-anchor="middle" x="456" y="-261.8" font-family="Lato,Helvetica,Arial,sans-serif" font-size="14.00" fill="#000000">Select Diffexp Genes in Any Contrast</text>
</g>
<!-- p3&#45;&gt;p4 -->
<g id="edge16" class="edge">
<title>p3-&gt;p4</title>
<path fill="none" stroke="#000000" d="M451.4219,-325.2099C452.1318,-316.029 453.0064,-304.7167 453.8004,-294.4482"/>
<polygon fill="#000000" stroke="#000000" points="457.3069,-294.4982 454.5883,-284.2581 450.3277,-293.9585 457.3069,-294.4982"/>
</g>
<!-- p5 -->
<g id="node20" class="node">
<title>p5</title>
<text text-anchor="middle" x="541" y="-182.2" font-family="Lato,Helvetica,Arial,sans-serif" font-size="14.00" fill="#000000">Select Core Genes</text>
</g>
<!-- p3&#45;&gt;p5 -->
<g id="edge18" class="edge">
<title>p3-&gt;p5</title>
<path fill="none" stroke="#000000" d="M528.8861,-325.4789C548.5294,-317.0434 567.3014,-304.7335 579,-286.8 594.0354,-263.7514 579.0847,-233.89 563.7369,-212.7426"/>
<polygon fill="#000000" stroke="#000000" points="566.3096,-210.3456 557.4479,-204.5385 560.754,-214.6043 566.3096,-210.3456"/>
</g>
<!-- p4&#45;&gt;f3 -->
<g id="edge17" class="edge">
<title>p4-&gt;f3</title>
<path fill="none" stroke="#000000" d="M364.454,-247.9996C352.1258,-244.5997 341.7505,-240.9331 336,-237.2 326.5298,-231.0521 318.4362,-221.7884 312.1171,-212.8482"/>
<polygon fill="#000000" stroke="#000000" points="315.0364,-210.9174 306.6154,-204.4879 309.189,-214.7655 315.0364,-210.9174"/>
</g>
<!-- p5&#45;&gt;f4 -->
<g id="edge19" class="edge">
<title>p5-&gt;f4</title>
<path fill="none" stroke="#000000" d="M497.5192,-168.3141C490.3737,-165.5424 483.0125,-162.8065 476,-160.4 427.4864,-143.7513 370.3855,-127.9275 333.9549,-118.2959"/>
<polygon fill="#000000" stroke="#000000" points="334.8131,-114.9027 324.2521,-115.7479 333.0352,-121.6731 334.8131,-114.9027"/>
</g>
<!-- p5&#45;&gt;p6 -->
<g id="edge21" class="edge">
<title>p5-&gt;p6</title>
<path fill="none" stroke="#000000" d="M541,-168.0099C541,-158.829 541,-147.5167 541,-137.2482"/>
<polygon fill="#000000" stroke="#000000" points="544.5001,-137.0581 541,-127.0581 537.5001,-137.0581 544.5001,-137.0581"/>
</g>
<!-- p6&#45;&gt;f5 -->
<g id="edge22" class="edge">
<title>p6-&gt;f5</title>
<path fill="none" stroke="#000000" d="M482.2454,-90.7883C436.0643,-76.6312 373.1716,-57.351 333.8399,-45.2936"/>
<polygon fill="#000000" stroke="#000000" points="334.7175,-41.9019 324.1308,-42.3171 332.6658,-48.5944 334.7175,-41.9019"/>
</g>
</g>
</svg>