<?xml version="1.0" encoding="UTF-8" standalone="no"?><!DOCTYPE svg PUBLIC "-//W3C//DTD SVG 1.1//EN" "http://www.w3.org/Graphics/SVG/1.1/DTD/svg11.dtd"><!-- Generated by graphviz version 2.40.1 (20161225.0304)
 --><!-- Title: G Pages: 1 --><svg xmlns="http://www.w3.org/2000/svg" xmlns:xlink="http://www.w3.org/1999/xlink" width="449pt" height="640pt" viewBox="0.00 0.00 448.70 640.00">
<g id="graph0" class="graph" transform="scale(1 1) rotate(0) translate(4 636)">
<title>G</title>
<polygon fill="#ffffff" stroke="transparent" points="-4,4 -4,-636 444.6999,-636 444.6999,4 -4,4"/>
<g id="clust1" class="cluster">
<title>cluster_0</title>
<polygon fill="#d3d3d3" stroke="#d3d3d3" points="8,-547.2 8,-624 292,-624 292,-547.2 8,-547.2"/>
<text text-anchor="middle" x="150" y="-607.4" font-family="Lato,Helvetica,Arial,sans-serif" font-size="14.00" fill="#000000">NCBI SRA</text>
</g>
<g id="clust2" class="cluster">
<title>cluster_1</title>
<polygon fill="#d3d3d3" stroke="#d3d3d3" points="220,-462.4 220,-539.2 338,-539.2 338,-462.4 220,-462.4"/>
<text text-anchor="middle" x="279" y="-522.6" font-family="Lato,Helvetica,Arial,sans-serif" font-size="14.00" fill="#000000">Solgenomics</text>
</g>
<g id="clust3" class="cluster">
<title>cluster_2</title>
<polygon fill="#add8e6" stroke="#add8e6" points="102,-8 102,-390.4 172,-390.4 172,-8 102,-8"/>
<text text-anchor="middle" x="137" y="-373.8" font-family="Lato,Helvetica,Arial,sans-serif" font-size="14.00" fill="#000000">Figures</text>
</g>
<g id="clust4" class="cluster">
<title>cluster_3</title>
<polygon fill="#d3d3d3" stroke="#d3d3d3" points="180,-164.8 180,-241.6 312,-241.6 312,-164.8 180,-164.8"/>
<text text-anchor="middle" x="246" y="-225" font-family="Lato,Helvetica,Arial,sans-serif" font-size="14.00" fill="#000000">Literature</text>
</g>
<g id="clust5" class="cluster">
<title>cluster_4</title>
<polygon fill="#d3d3d3" stroke="#d3d3d3" points="327,-80 327,-156.8 430,-156.8 430,-80 327,-80"/>
<text text-anchor="middle" x="378.5" y="-140.2" font-family="Lato,Helvetica,Arial,sans-serif" font-size="14.00" fill="#000000">OMA Database</text>
</g>
<!-- d1 -->
<g id="node1" class="node">
<title>d1</title>
<path fill="#ffffff" stroke="#ffffff" d="M284.3537,-587.9273C284.3537,-589.7331 268.0594,-591.2 248,-591.2 227.9406,-591.2 211.6463,-589.7331 211.6463,-587.9273 211.6463,-587.9273 211.6463,-558.4727 211.6463,-558.4727 211.6463,-556.6669 227.9406,-555.2 248,-555.2 268.0594,-555.2 284.3537,-556.6669 284.3537,-558.4727 284.3537,-558.4727 284.3537,-587.9273 284.3537,-587.9273"/>
<path fill="none" stroke="#ffffff" d="M284.3537,-587.9273C284.3537,-586.1214 268.0594,-584.6545 248,-584.6545 227.9406,-584.6545 211.6463,-586.1214 211.6463,-587.9273"/>
<text text-anchor="middle" x="248" y="-569" font-family="Lato,Helvetica,Arial,sans-serif" font-size="14.00" fill="#000000">Heat Data</text>
</g>
<!-- p1 -->
<g id="node12" class="node">
<title>p1</title>
<text text-anchor="middle" x="148" y="-484.2" font-family="Lato,Helvetica,Arial,sans-serif" font-size="14.00" fill="#000000">Annotate and Filter</text>
</g>
<!-- d1&#45;&gt;p1 -->
<g id="edge5" class="edge">
<title>d1-&gt;p1</title>
<path fill="none" stroke="#000000" d="M226.7926,-555.2161C212.4389,-543.0442 193.283,-526.8 177.4533,-513.3764"/>
<polygon fill="#000000" stroke="#000000" points="179.4122,-510.4486 169.5216,-506.6503 174.8849,-515.7874 179.4122,-510.4486"/>
</g>
<!-- d2 -->
<g id="node2" class="node">
<title>d2</title>
<path fill="#ffffff" stroke="#ffffff" d="M194.0851,-587.9273C194.0851,-589.7331 173.429,-591.2 148,-591.2 122.571,-591.2 101.9149,-589.7331 101.9149,-587.9273 101.9149,-587.9273 101.9149,-558.4727 101.9149,-558.4727 101.9149,-556.6669 122.571,-555.2 148,-555.2 173.429,-555.2 194.0851,-556.6669 194.0851,-558.4727 194.0851,-558.4727 194.0851,-587.9273 194.0851,-587.9273"/>
<path fill="none" stroke="#ffffff" d="M194.0851,-587.9273C194.0851,-586.1214 173.429,-584.6545 148,-584.6545 122.571,-584.6545 101.9149,-586.1214 101.9149,-587.9273"/>
<text text-anchor="middle" x="148" y="-569" font-family="Lato,Helvetica,Arial,sans-serif" font-size="14.00" fill="#000000">Drought Data</text>
</g>
<!-- d2&#45;&gt;p1 -->
<g id="edge6" class="edge">
<title>d2-&gt;p1</title>
<path fill="none" stroke="#000000" d="M148,-554.7997C148,-543.6112 148,-529.0983 148,-516.4954"/>
<polygon fill="#000000" stroke="#000000" points="151.5001,-516.4731 148,-506.4731 144.5001,-516.4731 151.5001,-516.4731"/>
</g>
<!-- d3 -->
<g id="node3" class="node">
<title>d3</title>
<path fill="#ffffff" stroke="#ffffff" d="M83.7054,-587.9273C83.7054,-589.7331 68.5981,-591.2 50,-591.2 31.4019,-591.2 16.2946,-589.7331 16.2946,-587.9273 16.2946,-587.9273 16.2946,-558.4727 16.2946,-558.4727 16.2946,-556.6669 31.4019,-555.2 50,-555.2 68.5981,-555.2 83.7054,-556.6669 83.7054,-558.4727 83.7054,-558.4727 83.7054,-587.9273 83.7054,-587.9273"/>
<path fill="none" stroke="#ffffff" d="M83.7054,-587.9273C83.7054,-586.1214 68.5981,-584.6545 50,-584.6545 31.4019,-584.6545 16.2946,-586.1214 16.2946,-587.9273"/>
<text text-anchor="middle" x="50" y="-569" font-family="Lato,Helvetica,Arial,sans-serif" font-size="14.00" fill="#000000">Salt Data</text>
</g>
<!-- d3&#45;&gt;p1 -->
<g id="edge7" class="edge">
<title>d3-&gt;p1</title>
<path fill="none" stroke="#000000" d="M70.7833,-555.2161C84.8499,-543.0442 103.6227,-526.8 119.1358,-513.3764"/>
<polygon fill="#000000" stroke="#000000" points="121.637,-515.8405 126.9088,-506.6503 117.0566,-510.5471 121.637,-515.8405"/>
</g>
<!-- d4 -->
<g id="node4" class="node">
<title>d4</title>
<path fill="#ffffff" stroke="#ffffff" d="M329.6523,-503.1273C329.6523,-504.9331 306.9491,-506.4 279,-506.4 251.0509,-506.4 228.3477,-504.9331 228.3477,-503.1273 228.3477,-503.1273 228.3477,-473.6727 228.3477,-473.6727 228.3477,-471.8669 251.0509,-470.4 279,-470.4 306.9491,-470.4 329.6523,-471.8669 329.6523,-473.6727 329.6523,-473.6727 329.6523,-503.1273 329.6523,-503.1273"/>
<path fill="none" stroke="#ffffff" d="M329.6523,-503.1273C329.6523,-501.3214 306.9491,-499.8545 279,-499.8545 251.0509,-499.8545 228.3477,-501.3214 228.3477,-503.1273"/>
<text text-anchor="middle" x="279" y="-484.2" font-family="Lato,Helvetica,Arial,sans-serif" font-size="14.00" fill="#000000">ITAG 4.1 CDS</text>
</g>
<!-- p2 -->
<g id="node13" class="node">
<title>p2</title>
<text text-anchor="middle" x="213" y="-412.2" font-family="Lato,Helvetica,Arial,sans-serif" font-size="14.00" fill="#000000">Quantify Transcript Abundance</text>
</g>
<!-- d4&#45;&gt;p2 -->
<g id="edge8" class="edge">
<title>d4-&gt;p2</title>
<path fill="none" stroke="#000000" d="M262.3454,-470.2314C254.5886,-461.7694 245.2198,-451.5489 236.739,-442.2971"/>
<polygon fill="#000000" stroke="#000000" points="239.2162,-439.8198 229.8788,-434.8133 234.0561,-444.5499 239.2162,-439.8198"/>
</g>
<!-- f1 -->
<g id="node5" class="node">
<title>f1</title>
<polygon fill="#ffffff" stroke="#ffffff" points="164,-357.6 110,-357.6 110,-353.6 106,-353.6 106,-349.6 110,-349.6 110,-329.6 106,-329.6 106,-325.6 110,-325.6 110,-321.6 164,-321.6 164,-357.6"/>
<polyline fill="none" stroke="#ffffff" points="110,-353.6 114,-353.6 114,-349.6 110,-349.6 "/>
<polyline fill="none" stroke="#ffffff" points="110,-329.6 114,-329.6 114,-325.6 110,-325.6 "/>
<text text-anchor="middle" x="137" y="-335.4" font-family="Lato,Helvetica,Arial,sans-serif" font-size="14.00" fill="#000000">2A</text>
</g>
<!-- f2 -->
<g id="node6" class="node">
<title>f2</title>
<polygon fill="#ffffff" stroke="#ffffff" points="164,-285.6 110,-285.6 110,-281.6 106,-281.6 106,-277.6 110,-277.6 110,-257.6 106,-257.6 106,-253.6 110,-253.6 110,-249.6 164,-249.6 164,-285.6"/>
<polyline fill="none" stroke="#ffffff" points="110,-281.6 114,-281.6 114,-277.6 110,-277.6 "/>
<polyline fill="none" stroke="#ffffff" points="110,-257.6 114,-257.6 114,-253.6 110,-253.6 "/>
<text text-anchor="middle" x="137" y="-263.4" font-family="Lato,Helvetica,Arial,sans-serif" font-size="14.00" fill="#000000">2B</text>
</g>
<!-- f1&#45;&gt;f2 -->
<g id="edge1" class="edge">
<title>f1-&gt;f2</title>
<path fill="none" stroke="#000000" stroke-width="0" d="M137,-321.4314C137,-310.6846 137,-297.1017 137,-286.2687"/>
<polygon fill="#000000" stroke="#000000" stroke-width="0" points="137,-286.0133 137,-286.0133 137,-286.0133 137,-286.0133"/>
</g>
<!-- f3 -->
<g id="node7" class="node">
<title>f3</title>
<polygon fill="#ffffff" stroke="#ffffff" points="164,-208.8 110,-208.8 110,-204.8 106,-204.8 106,-200.8 110,-200.8 110,-180.8 106,-180.8 106,-176.8 110,-176.8 110,-172.8 164,-172.8 164,-208.8"/>
<polyline fill="none" stroke="#ffffff" points="110,-204.8 114,-204.8 114,-200.8 110,-200.8 "/>
<polyline fill="none" stroke="#ffffff" points="110,-180.8 114,-180.8 114,-176.8 110,-176.8 "/>
<text text-anchor="middle" x="137" y="-186.6" font-family="Lato,Helvetica,Arial,sans-serif" font-size="14.00" fill="#000000">3</text>
</g>
<!-- f2&#45;&gt;f3 -->
<g id="edge2" class="edge">
<title>f2-&gt;f3</title>
<path fill="none" stroke="#000000" stroke-width="0" d="M137,-249.3995C137,-237.2526 137,-221.3359 137,-209.1569"/>
<polygon fill="#000000" stroke="#000000" stroke-width="0" points="137,-208.8699 137,-208.8699 137,-208.8699 137,-208.8699"/>
</g>
<!-- f4 -->
<g id="node8" class="node">
<title>f4</title>
<polygon fill="#ffffff" stroke="#ffffff" points="164,-124 110,-124 110,-120 106,-120 106,-116 110,-116 110,-96 106,-96 106,-92 110,-92 110,-88 164,-88 164,-124"/>
<polyline fill="none" stroke="#ffffff" points="110,-120 114,-120 114,-116 110,-116 "/>
<polyline fill="none" stroke="#ffffff" points="110,-96 114,-96 114,-92 110,-92 "/>
<text text-anchor="middle" x="137" y="-101.8" font-family="Lato,Helvetica,Arial,sans-serif" font-size="14.00" fill="#000000">4</text>
</g>
<!-- f3&#45;&gt;f4 -->
<g id="edge3" class="edge">
<title>f3-&gt;f4</title>
<path fill="none" stroke="#000000" stroke-width="0" d="M137,-172.3997C137,-158.1903 137,-138.619 137,-124.4078"/>
<polygon fill="#000000" stroke="#000000" stroke-width="0" points="137,-124.0731 137,-124.0731 137,-124.0731 137,-124.0731"/>
</g>
<!-- f5 -->
<g id="node9" class="node">
<title>f5</title>
<polygon fill="#ffffff" stroke="#ffffff" points="164,-52 110,-52 110,-48 106,-48 106,-44 110,-44 110,-24 106,-24 106,-20 110,-20 110,-16 164,-16 164,-52"/>
<polyline fill="none" stroke="#ffffff" points="110,-48 114,-48 114,-44 110,-44 "/>
<polyline fill="none" stroke="#ffffff" points="110,-24 114,-24 114,-20 110,-20 "/>
<text text-anchor="middle" x="137" y="-29.8" font-family="Lato,Helvetica,Arial,sans-serif" font-size="14.00" fill="#000000">5</text>
</g>
<!-- f4&#45;&gt;f5 -->
<g id="edge4" class="edge">
<title>f4-&gt;f5</title>
<path fill="none" stroke="#000000" stroke-width="0" d="M137,-87.8314C137,-77.0846 137,-63.5017 137,-52.6687"/>
<polygon fill="#000000" stroke="#000000" stroke-width="0" points="137,-52.4133 137,-52.4133 137,-52.4133 137,-52.4133"/>
</g>
<!-- d5 -->
<g id="node10" class="node">
<title>d5</title>
<path fill="#ffffff" stroke="#ffffff" d="M303.5214,-205.5273C303.5214,-207.3331 277.7394,-208.8 246,-208.8 214.2606,-208.8 188.4786,-207.3331 188.4786,-205.5273 188.4786,-205.5273 188.4786,-176.0727 188.4786,-176.0727 188.4786,-174.2669 214.2606,-172.8 246,-172.8 277.7394,-172.8 303.5214,-174.2669 303.5214,-176.0727 303.5214,-176.0727 303.5214,-205.5273 303.5214,-205.5273"/>
<path fill="none" stroke="#ffffff" d="M303.5214,-205.5273C303.5214,-203.7214 277.7394,-202.2545 246,-202.2545 214.2606,-202.2545 188.4786,-203.7214 188.4786,-205.5273"/>
<text text-anchor="middle" x="246" y="-186.6" font-family="Lato,Helvetica,Arial,sans-serif" font-size="14.00" fill="#000000">Heat Stress QTLs</text>
</g>
<!-- d5&#45;&gt;f4 -->
<g id="edge17" class="edge">
<title>d5-&gt;f4</title>
<path fill="none" stroke="#000000" d="M199.4385,-173.5376C190.1422,-168.9097 180.8382,-163.3364 173,-156.8 164.9901,-150.1205 157.9043,-141.2599 152.1837,-132.811"/>
<polygon fill="#000000" stroke="#000000" points="155.0619,-130.8149 146.7349,-124.2642 149.1594,-134.5779 155.0619,-130.8149"/>
</g>
<!-- d6 -->
<g id="node11" class="node">
<title>d6</title>
<path fill="#ffffff" stroke="#ffffff" d="M407.993,-120.7273C407.993,-122.5331 391.8604,-124 372,-124 352.1396,-124 336.007,-122.5331 336.007,-120.7273 336.007,-120.7273 336.007,-91.2727 336.007,-91.2727 336.007,-89.4669 352.1396,-88 372,-88 391.8604,-88 407.993,-89.4669 407.993,-91.2727 407.993,-91.2727 407.993,-120.7273 407.993,-120.7273"/>
<path fill="none" stroke="#ffffff" d="M407.993,-120.7273C407.993,-118.9214 391.8604,-117.4545 372,-117.4545 352.1396,-117.4545 336.007,-118.9214 336.007,-120.7273"/>
<text text-anchor="middle" x="372" y="-101.8" font-family="Lato,Helvetica,Arial,sans-serif" font-size="14.00" fill="#000000">Orthologs</text>
</g>
<!-- d6&#45;&gt;f5 -->
<g id="edge20" class="edge">
<title>d6-&gt;f5</title>
<path fill="none" stroke="#000000" d="M344.5399,-88.4857C338.8852,-85.3544 332.8637,-82.347 327,-80 275.8042,-59.5086 213.0575,-46.4983 174.0455,-39.7274"/>
<polygon fill="#000000" stroke="#000000" points="174.6241,-36.2756 164.1808,-38.0608 173.458,-43.1778 174.6241,-36.2756"/>
</g>
<!-- p1&#45;&gt;p2 -->
<g id="edge9" class="edge">
<title>p1-&gt;p2</title>
<path fill="none" stroke="#000000" d="M164.4022,-470.2314C172.0415,-461.7694 181.2683,-451.5489 189.6207,-442.2971"/>
<polygon fill="#000000" stroke="#000000" points="192.2738,-444.5813 196.3769,-434.8133 187.0779,-439.8906 192.2738,-444.5813"/>
</g>
<!-- p2&#45;&gt;f1 -->
<g id="edge10" class="edge">
<title>p2-&gt;f1</title>
<path fill="none" stroke="#000000" d="M187.9417,-398.2877C184.8394,-395.7438 181.7837,-393.0799 179,-390.4 171.2094,-382.9 163.4474,-374.0149 156.7543,-365.7892"/>
<polygon fill="#000000" stroke="#000000" points="159.4163,-363.5132 150.4562,-357.8591 153.9347,-367.8666 159.4163,-363.5132"/>
</g>
<!-- p3 -->
<g id="node14" class="node">
<title>p3</title>
<text text-anchor="middle" x="290" y="-335.4" font-family="Lato,Helvetica,Arial,sans-serif" font-size="14.00" fill="#000000">Calculate Differential Expression</text>
</g>
<!-- p2&#45;&gt;p3 -->
<g id="edge11" class="edge">
<title>p2-&gt;p3</title>
<path fill="none" stroke="#000000" d="M231.2479,-398.1995C241.2209,-388.2524 253.7284,-375.7774 264.6371,-364.897"/>
<polygon fill="#000000" stroke="#000000" points="267.2744,-367.2099 271.8831,-357.6699 262.3311,-362.2537 267.2744,-367.2099"/>
</g>
<!-- p3&#45;&gt;f2 -->
<g id="edge12" class="edge">
<title>p3-&gt;f2</title>
<path fill="none" stroke="#000000" d="M250.0529,-321.5366C229.4119,-312.1181 203.6441,-300.2303 173.2257,-285.6508"/>
<polygon fill="#000000" stroke="#000000" points="174.6112,-282.4335 164.0822,-281.2544 171.5778,-288.7421 174.6112,-282.4335"/>
</g>
<!-- p4 -->
<g id="node15" class="node">
<title>p4</title>
<text text-anchor="middle" x="296" y="-263.4" font-family="Lato,Helvetica,Arial,sans-serif" font-size="14.00" fill="#000000">Select Diffexp Genes in Any Contrast</text>
</g>
<!-- p3&#45;&gt;p4 -->
<g id="edge13" class="edge">
<title>p3-&gt;p4</title>
<path fill="none" stroke="#000000" d="M291.5141,-321.4314C292.1558,-313.731 292.9188,-304.5743 293.6319,-296.0166"/>
<polygon fill="#000000" stroke="#000000" points="297.1229,-296.2694 294.4656,-286.0133 290.1471,-295.688 297.1229,-296.2694"/>
</g>
<!-- p5 -->
<g id="node16" class="node">
<title>p5</title>
<text text-anchor="middle" x="381" y="-186.6" font-family="Lato,Helvetica,Arial,sans-serif" font-size="14.00" fill="#000000">Select Core Genes</text>
</g>
<!-- p3&#45;&gt;p5 -->
<g id="edge15" class="edge">
<title>p3-&gt;p5</title>
<path fill="none" stroke="#000000" d="M372.8207,-321.4962C390.9806,-313.5305 408.0376,-302.0731 419,-285.6 433.1825,-264.2881 419.282,-236.8628 404.4633,-216.998"/>
<polygon fill="#000000" stroke="#000000" points="407.0806,-214.6648 398.1354,-208.9872 401.5876,-219.0039 407.0806,-214.6648"/>
</g>
<!-- p4&#45;&gt;f3 -->
<g id="edge14" class="edge">
<title>p4-&gt;f3</title>
<path fill="none" stroke="#000000" d="M196.1596,-249.5753C187.531,-247.0726 180.4118,-244.395 176,-241.6 166.4622,-235.5575 158.3546,-226.3156 152.0433,-217.3633"/>
<polygon fill="#000000" stroke="#000000" points="154.9615,-215.4306 146.5547,-208.9827 149.1056,-219.2659 154.9615,-215.4306"/>
</g>
<!-- p5&#45;&gt;f4 -->
<g id="edge16" class="edge">
<title>p5-&gt;f4</title>
<path fill="none" stroke="#000000" d="M341.7733,-172.7488C333.4227,-169.5797 324.5434,-166.6943 316,-164.8 284.9272,-157.9103 200.8533,-172.2007 173,-156.8 163.2801,-151.4257 155.5633,-142.1818 149.8074,-133.0405"/>
<polygon fill="#000000" stroke="#000000" points="152.6944,-131.0373 144.7036,-124.0804 146.6119,-134.5019 152.6944,-131.0373"/>
</g>
<!-- p6 -->
<g id="node17" class="node">
<title>p6</title>
<text text-anchor="middle" x="250" y="-101.8" font-family="Lato,Helvetica,Arial,sans-serif" font-size="14.00" fill="#000000">Find Oldest Ortholog</text>
</g>
<!-- p5&#45;&gt;p6 -->
<g id="edge18" class="edge">
<title>p5-&gt;p6</title>
<path fill="none" stroke="#000000" d="M349.1234,-172.712C340.5594,-167.6905 331.3576,-162.1462 323,-156.8 309.79,-148.3498 295.5718,-138.6088 283.2246,-129.9313"/>
<polygon fill="#000000" stroke="#000000" points="285.1964,-127.039 275.0108,-124.1227 281.1546,-132.7543 285.1964,-127.039"/>
</g>
<!-- p6&#45;&gt;f5 -->
<g id="edge19" class="edge">
<title>p6-&gt;f5</title>
<path fill="none" stroke="#000000" d="M221.4853,-87.8314C206.7009,-78.4112 188.4963,-66.8118 172.7763,-56.7955"/>
<polygon fill="#000000" stroke="#000000" points="174.6505,-53.8396 164.3361,-51.4177 170.8889,-59.7431 174.6505,-53.8396"/>
</g>
</g>
</svg>